<?xml version="1.0" encoding="UTF-8" standalone="no"?>
<svg
   xmlns:dc="http://purl.org/dc/elements/1.1/"
   xmlns:cc="http://creativecommons.org/ns#"
   xmlns:rdf="http://www.w3.org/1999/02/22-rdf-syntax-ns#"
   xmlns:svg="http://www.w3.org/2000/svg"
   xmlns="http://www.w3.org/2000/svg"
   xmlns:sodipodi="http://sodipodi.sourceforge.net/DTD/sodipodi-0.dtd"
   xmlns:inkscape="http://www.inkscape.org/namespaces/inkscape"
   width="210mm"
   height="297mm"
   viewBox="0 0 210 297"
   version="1.1"
   id="svg8"
   inkscape:version="1.0 (4035a4fb49, 2020-05-01)"
   sodipodi:docname="logo.svg">
  <defs
     id="defs2" />
  <sodipodi:namedview
     id="base"
     pagecolor="#ffffff"
     bordercolor="#666666"
     borderopacity="1.0"
     inkscape:pageopacity="0.0"
     inkscape:pageshadow="2"
     inkscape:zoom="5.6"
     inkscape:cx="254.12272"
     inkscape:cy="236.03743"
     inkscape:document-units="mm"
     inkscape:current-layer="layer1"
     inkscape:document-rotation="0"
     showgrid="false"
     inkscape:snap-text-baseline="false"
     inkscape:window-width="1811"
     inkscape:window-height="1102"
     inkscape:window-x="192"
     inkscape:window-y="0"
     inkscape:window-maximized="0" />
  <metadata
     id="metadata5">
    <rdf:RDF>
      <cc:Work
         rdf:about="">
        <dc:format>image/svg+xml</dc:format>
        <dc:type
           rdf:resource="http://purl.org/dc/dcmitype/StillImage" />
        <dc:title />
      </cc:Work>
    </rdf:RDF>
  </metadata>
  <g
     inkscape:label="Vrstva 1"
     inkscape:groupmode="layer"
     id="layer1">
    <g
       style="font-style:normal;font-weight:normal;font-size:23.3247px;line-height:1.25;font-family:sans-serif;fill:#000000;fill-opacity:1;stroke:none;stroke-width:0.273336"
       id="text12"
       transform="scale(1.0330826,0.96797678)"
       aria-label="G" />
    <g
       inkscape:export-ydpi="149.58559"
       inkscape:export-xdpi="149.58559"
       id="g907">
      <path
         id="path29"
         style="fill:#00ddf8;fill-opacity:1;fill-rule:evenodd;stroke:#0a59bc;stroke-width:0.25;stroke-miterlimit:4;stroke-dasharray:none;stroke-opacity:1"
         d="m 75.238542,52.673271 c -1.246638,0 -2.426597,0.195696 -3.54026,0.587044 -1.097041,0.376295 -2.077596,0.933156 -2.941931,1.670698 -0.864336,0.737539 -1.546044,1.648402 -2.044697,2.732132 -0.482033,1.083734 -0.689511,2.325534 -0.689511,3.725355 0,1.535287 0.348922,2.904646 1.113527,4.108794 0.781228,1.204148 1.878236,2.160087 3.291091,2.867525 1.412856,0.692385 3.083091,1.038696 5.011226,1.038696 0.681494,0 1.413187,-0.07531 2.194415,-0.225827 0.797848,-0.165569 1.529006,-0.368951 2.19388,-0.60978 0.785201,-0.322699 1.102357,-0.585888 1.469362,-0.957048 0.212038,-0.304856 -0.251434,-3.849299 -1.488076,-4.768702 -0.211663,-0.157364 -0.354712,-0.267782 -0.509035,-0.385506 0.173618,-0.434697 0.268941,-0.979154 0.268954,-1.485696 -3.5e-5,-2.417048 -2.027444,-4.376444 -4.52839,-4.376479 -2.501155,-2.51e-4 -4.528886,1.959229 -4.528922,4.376479 3.6e-5,2.417246 2.02777,4.376726 4.528922,4.376475 1.039694,-2.1e-5 2.047716,-0.345802 2.854774,-0.979268 0.124313,0.119243 0.04374,0.03969 0.230991,0.220657 0.783232,0.75696 0.826118,1.638803 0.73468,1.735813 -0.09144,0.09701 -1.044264,0.467211 -1.626028,0.572574 -0.565143,0.105367 -1.164526,0.241848 -1.762911,0.241848 -1.346371,0 -2.482973,-0.181804 -3.513526,-0.678514 -1.013933,-0.49671 -1.897306,-1.171662 -2.47907,-2.044668 -0.565144,-0.888061 -1.095253,-1.881264 -1.120051,-3.27387 -0.02876,-1.615252 0.464972,-2.51116 1.030113,-3.429322 0.565143,-0.918163 1.437875,-1.637081 2.468431,-2.133791 1.030553,-0.49671 2.16888,-0.760121 3.664846,-0.714153 0.507275,0.01558 1.216176,0.117634 1.614524,0.214644 0.373208,0.07361 0.887132,0.258712 1.369165,0.482748 0.523711,0.200633 0.692894,0.333806 1.091327,0.36934 0.39843,0.03554 1.350628,-1.074971 1.361349,-1.648479 0.01073,-0.573508 -1.69033,-1.039259 -2.604532,-1.265039 -0.9142,-0.225777 -2.034217,-0.34468 -3.114637,-0.34468 z m -0.25131,6.09265 h 5.47e-4 c 0.01122,-8.2e-5 0.02245,-8.2e-5 0.03369,0 1.240853,6.6e-5 2.246748,0.972217 2.246817,2.171443 -6.9e-5,1.199227 -1.005964,2.171377 -2.246817,2.171443 -1.240853,-6.6e-5 -2.246748,-0.972216 -2.246816,-2.171443 -7.4e-5,-1.186431 0.985127,-2.153309 2.212595,-2.171443 z"
         sodipodi:nodetypes="scscsccscccsccccccsscsccssssccsssssscccsss" />
      <ellipse
         style="fill:none;fill-opacity:1;fill-rule:evenodd;stroke:#bc0a0a;stroke-width:0.35;stroke-miterlimit:4;stroke-dasharray:none;stroke-opacity:1"
         id="path897"
         cx="75.054825"
         cy="60.936852"
         rx="0.44842386"
         ry="0.43338075" />
    </g>
  </g>
</svg>
