<?xml version="1.0" encoding="UTF-8" standalone="no"?>
<svg
   xmlns:dc="http://purl.org/dc/elements/1.1/"
   xmlns:cc="http://creativecommons.org/ns#"
   xmlns:rdf="http://www.w3.org/1999/02/22-rdf-syntax-ns#"
   xmlns:svg="http://www.w3.org/2000/svg"
   xmlns="http://www.w3.org/2000/svg"
   xmlns:sodipodi="http://sodipodi.sourceforge.net/DTD/sodipodi-0.dtd"
   xmlns:inkscape="http://www.inkscape.org/namespaces/inkscape"
   inkscape:export-ydpi="149.41177"
   inkscape:export-xdpi="149.41177"
   inkscape:export-filename="D:\Workspace\gomshal\assets\logo-space.png"
   width="210mm"
   height="297mm"
   viewBox="0 0 210 297"
   version="1.1"
   id="svg8"
   inkscape:version="1.0 (4035a4fb49, 2020-05-01)"
   sodipodi:docname="logo.svg">
  <defs
     id="defs2" />
  <sodipodi:namedview
     id="base"
     pagecolor="#ffffff"
     bordercolor="#666666"
     borderopacity="1.0"
     inkscape:pageopacity="0.0"
     inkscape:pageshadow="2"
     inkscape:zoom="11.2"
     inkscape:cx="268.54532"
     inkscape:cy="225.45002"
     inkscape:document-units="mm"
     inkscape:current-layer="layer1"
     inkscape:document-rotation="0"
     showgrid="false"
     inkscape:snap-text-baseline="false"
     inkscape:window-width="1811"
     inkscape:window-height="1102"
     inkscape:window-x="192"
     inkscape:window-y="0"
     inkscape:window-maximized="0" />
  <metadata
     id="metadata5">
    <rdf:RDF>
      <cc:Work
         rdf:about="">
        <dc:format>image/svg+xml</dc:format>
        <dc:type
           rdf:resource="http://purl.org/dc/dcmitype/StillImage" />
        <dc:title />
      </cc:Work>
    </rdf:RDF>
  </metadata>
  <g
     inkscape:label="Vrstva 1"
     inkscape:groupmode="layer"
     id="layer1">
    <g
       style="font-style:normal;font-weight:normal;font-size:23.3247px;line-height:1.25;font-family:sans-serif;fill:#000000;fill-opacity:1;stroke:none;stroke-width:0.273336"
       id="text12"
       transform="scale(1.0330826,0.96797678)"
       aria-label="G" />
    <rect
       style="fill:#dcfbe0;fill-opacity:1;fill-rule:evenodd;stroke:#023644;stroke-width:0.2;stroke-miterlimit:4;stroke-dasharray:none;stroke-opacity:1"
       id="rect885"
       width="10"
       height="10"
       x="68.437317"
       y="52.420574"
       ry="0.70870537"
       inkscape:export-xdpi="149.41177"
       inkscape:export-ydpi="149.41177" />
    <g
       aria-label="g"
       id="text838"
       style="font-style:normal;font-weight:normal;font-size:10.5833px;line-height:1.25;font-family:sans-serif;fill:#7dd7f1;fill-opacity:1;stroke:#0567b8;stroke-width:0.2;stroke-opacity:1;stroke-miterlimit:4;stroke-dasharray:none"
       transform="translate(2.3623512,10.866815)"
       inkscape:export-xdpi="149.41177"
       inkscape:export-ydpi="149.41177">
      <path
         d="m 69.256741,45.550567 c 0.768254,0 1.240969,-0.313502 1.240969,-1.105871 0,-0.823375 -0.452536,-1.134664 -1.22768,-1.134664 -0.775144,0 -1.221775,0.286926 -1.221775,1.120637 0,0.287133 0.09914,0.42199 -0.01443,0.65703 -0.09449,0.147647 -0.343825,0.341703 -0.576167,0.192671 -0.247505,-0.239565 -0.269454,-0.517993 -0.269454,-0.865946 0,-0.627005 0.141247,-1.085693 0.506426,-1.423312 0.368624,-0.341063 0.909995,-0.482066 1.588677,-0.482066 0.296277,0 0.90545,0.0261 1.267922,0.0616 0.304855,0.02089 1.493997,0.116934 1.493997,0.116934 l -0.05651,-0.652861 1.476014,1.035655 -1.519721,1.00405 0.07517,-0.669267 -0.971094,-0.0025 c 0.198875,0.334593 0.285783,0.592916 0.285783,1.033887 0,0.554659 -0.184312,0.997352 -0.552936,1.32808 -0.365179,0.327283 -0.875052,0.490925 -1.529618,0.490925 -0.189479,0 -0.479851,0.05167 -0.586157,0.110731 -0.202767,0.08071 -0.345492,0.292094 -0.345492,0.557365 0,0.289387 0.248022,0.406574 0.802458,0.422269 l 1.043123,0.02953 c 0.599205,0.01696 0.980865,0.103107 1.297812,0.368378 0.316948,0.265272 0.475422,0.644231 0.475422,1.136878 0,1.298797 -0.973236,1.948195 -2.919709,1.948195 -0.751029,0 -1.322913,-0.139526 -1.715652,-0.418577 -0.389295,-0.275607 -0.618135,-0.66435 -0.583942,-1.162716 0.02108,-0.307253 0.346684,-0.882676 0.617897,-0.974495 0.282583,-0.09567 0.426252,0.01461 0.525579,0.179115 0.125895,0.348136 -0.146066,0.527201 -0.254644,0.764374 -0.249522,0.545044 0.466809,0.899167 1.400427,0.899167 1.360808,0 2.100271,-0.372315 2.100271,-1.140569 0,-0.303167 -0.109754,-0.555397 -0.282005,-0.662194 -0.161727,-0.100952 -0.418552,-0.132181 -1.058625,-0.11959 -0.872494,-0.0064 -1.320363,-0.05167 -1.741857,-0.316431 -0.307104,-0.215072 -0.456603,-0.416392 -0.497944,-0.820451 -0.03927,-0.383845 0.05192,-0.822883 0.498307,-1.187078 0.319547,-0.257405 0.744426,-0.310188 1.22916,-0.318913 z"
         style="font-style:normal;font-variant:normal;font-weight:normal;font-stretch:normal;font-size:10.5833px;font-family:'Noto Mono';-inkscape-font-specification:'Noto Mono, Normal';font-variant-ligatures:normal;font-variant-caps:normal;font-variant-numeric:normal;font-variant-east-asian:normal;fill:#7dd7f1;fill-opacity:1;stroke:#0567b8;stroke-width:0.2;stroke-miterlimit:4;stroke-dasharray:none;stroke-opacity:1"
         id="path853"
         sodipodi:nodetypes="csssccscscccccccscscsssssscsscssscccsccc" />
    </g>
    <g
       aria-label="o"
       id="text872"
       style="font-style:normal;font-weight:normal;font-size:8.46667px;line-height:1.25;font-family:sans-serif;fill:#7dd7f1;fill-opacity:1;stroke:#0567b8;stroke-width:0.2;stroke-miterlimit:4;stroke-dasharray:none;stroke-opacity:1"
       transform="rotate(-8.1329789,87.727304,57.77367)"
       inkscape:export-xdpi="149.41177"
       inkscape:export-ydpi="149.41177">
      <path
         d="m 77.293652,55.514186 c 0.0099,-0.431367 -0.118652,-0.827253 -0.338997,-1.12448 -0.232758,-0.286436 -0.549587,-0.361261 -0.867574,-0.330138 -0.605753,0.06093 -0.899243,0.485166 -1.048884,0.803789 -0.05788,0.187413 -0.134067,0.48507 -0.134067,0.727606 -0.01256,0.432639 0.180887,0.723211 0.350813,0.907733 0.124128,0.140568 0.537278,0.399504 0.830366,0.39097 0.367259,0.0013 0.536564,-0.08148 0.768946,-0.302382 0.249576,-0.336151 0.437572,-0.696265 0.439397,-1.073098 z m 0.728786,0.06497 c -0.137058,1.084362 -0.72677,2.025607 -1.889882,2.033394 -0.292144,0 -0.5835,-0.08505 -0.815011,-0.184264 -0.477488,-0.225637 -0.834289,-0.623332 -0.990416,-1.076642 -0.158839,-0.568872 -0.164702,-1.194518 0.01591,-1.726288 0.185168,-0.489059 0.451531,-0.837414 0.82328,-1.057154 0.148829,-0.0815 0.371087,-0.213792 0.678586,-0.272851 0.437523,-0.04116 1.096375,-0.04485 1.588682,0.455935 0.179398,0.199489 0.680245,0.789833 0.588851,1.82787 z"
         style="font-style:normal;font-variant:normal;font-weight:normal;font-stretch:normal;font-size:8.46667px;font-family:Corbel;-inkscape-font-specification:'Corbel, Normal';font-variant-ligatures:normal;font-variant-caps:normal;font-variant-numeric:normal;font-variant-east-asian:normal;fill:#7dd7f1;fill-opacity:1;stroke:#0567b8;stroke-width:0.2;stroke-miterlimit:4;stroke-dasharray:none;stroke-opacity:1"
         id="path874"
         sodipodi:nodetypes="cccccccccccccccccc" />
    </g>
  </g>
</svg>
